<svg width="27" height="36" viewBox="0 0 27 36" fill="none" xmlns="http://www.w3.org/2000/svg">
<g id="Group">
<path id="Vector" d="M20.5257 20.108V29.3411C21.4064 29.6547 22.0412 30.487 22.0412 31.475C22.0412 32.7299 21.0227 33.7483 19.7678 33.7483C18.5132 33.7483 17.4947 32.7299 17.4947 31.475C17.4947 30.4867 18.1298 29.6548 19.0102 29.3411V20.108H17.4947C17.4947 21.7813 15.7988 23.1392 13.7058 23.1392C11.6126 23.139 9.91671 21.781 9.91671 20.108H8.40122V23.2163C10.1291 23.568 11.4325 25.0972 11.4325 26.9281V29.9593C11.4325 31.043 10.9565 32.0782 10.1275 32.8041C9.98343 32.9282 9.80608 32.9903 9.62873 32.9903C9.41813 32.9903 9.20729 32.9025 9.05886 32.7313C8.78306 32.4162 8.8163 31.9371 9.13168 31.6613C9.63025 31.2262 9.91671 30.6048 9.91671 29.9591V26.9278C9.91671 25.6747 8.89675 24.6547 7.64334 24.6547C6.38993 24.6547 5.36997 25.6747 5.36997 26.9281V29.9593C5.36997 30.6051 5.65643 31.2264 6.15649 31.6613C6.47162 31.9371 6.50359 32.4161 6.22931 32.7313C5.95351 33.0464 5.47293 33.0769 5.16089 32.8041C4.3302 32.0779 3.85448 31.0428 3.85448 29.9591V26.9278C3.85448 25.0969 5.15784 23.5678 6.88573 23.2161L6.88548 20.1079C3.53758 20.1079 0.823242 22.8223 0.823242 26.1701V35.2636H26.5883V26.1701C26.5883 22.8223 23.8737 20.1079 20.5258 20.1079L20.5257 20.108Z" fill="#1C6BA4"/>
<path id="Vector_2" d="M11.0854 18.0665C11.8917 18.403 12.777 18.5922 13.7059 18.5922C14.635 18.5922 15.52 18.4027 16.3264 18.0663C18.7908 17.039 20.526 14.6093 20.526 11.7722V9.49878H6.88574V11.7722C6.88574 14.6093 8.61968 17.039 11.0854 18.0665V18.0665Z" fill="#1C6BA4"/>
<path id="Vector_3" d="M20.5257 3.29532C18.6434 1.36906 16.1746 0.405151 13.7056 0.405151C11.2369 0.405151 8.76941 1.36906 6.8855 3.29532V7.98314H20.5257V3.29532ZM15.979 4.95189H14.4635V6.46739H12.948V4.95189H11.4325L11.4322 3.4364H12.9477L12.948 1.92091H14.4635V3.4364H15.979V4.95189Z" fill="#1C6BA4"/>
</g>
</svg>
