<svg width="25" height="33" viewBox="0 0 25 33" fill="none" xmlns="http://www.w3.org/2000/svg">
<g id="Group">
<path id="Vector" d="M15.4342 14.855L13.9544 12.6802L12.4917 15.9174C12.4098 16.1011 12.2519 16.21 12.0722 16.21L12.0703 16.2103C11.8906 16.2103 11.7329 16.1025 11.6509 15.9197L10.6154 13.6651L9.99522 14.8114C9.88029 15.0261 9.63067 15.1748 9.38703 15.1748H6.74808C6.53937 15.1748 6.37158 15.3435 6.37158 15.5513C6.37158 15.7591 6.53938 15.9287 6.74808 15.9287H9.23645C9.97545 16.7624 11.0718 17.5174 12.6373 18.0576C14.6653 17.3586 15.9116 16.3032 16.6005 15.1748H16.0383C15.8107 15.1766 15.5611 15.0449 15.4342 14.8551L15.4342 14.855Z" fill="#009DC7"/>
<path id="Vector_2" d="M18.9923 13.6788H17.2038C17.5944 11.8386 16.7706 10.125 15.6452 9.7226C13.6253 9.00061 12.6376 10.8271 12.6376 10.8271C12.6376 10.8271 11.6511 9.00067 9.63005 9.7226C8.353 10.1789 7.46531 12.3218 8.29393 14.4226H9.34943L10.2212 12.809C10.3132 12.6383 10.4729 12.5385 10.6506 12.5445C10.8283 12.5505 10.982 12.6594 11.0641 12.8371L12.0685 15.026L13.4686 11.9296C13.5444 11.7598 13.6931 11.649 13.8639 11.634C14.0377 11.6161 14.2013 11.703 14.3043 11.8577L16.0558 14.4318H18.9915C19.1981 14.4318 19.368 14.2619 19.368 14.0544C19.3678 13.8466 19.199 13.6788 18.9924 13.6788L18.9923 13.6788Z" fill="#009DC7"/>
<path id="Vector_3" d="M22.7818 4.10373H18.5539L18.5541 3.28983C18.5541 2.65863 18.0408 2.14653 17.4097 2.14653H16.4192C15.7253 0.902311 14.3973 0.0596924 12.8715 0.0596924C11.3448 0.0596924 10.0167 0.902546 9.32165 2.14653H8.33122C7.69914 2.14653 7.1868 2.65886 7.1868 3.28983V4.10255L2.95706 4.10278C1.80664 4.10278 0.870225 5.03943 0.870225 6.18962L0.869995 29.9265C0.869995 31.0769 1.80664 32.0133 2.95683 32.0133H22.7819C23.9323 32.0133 24.8687 31.0767 24.8687 29.9265L24.869 6.19021C24.869 5.03914 23.9323 4.10337 22.7819 4.10337L22.7818 4.10373ZM2.9573 29.9266V6.19027H7.18522V7.32963C7.18522 7.96171 7.69848 8.47293 8.32964 8.47293H17.4084C18.0405 8.47293 18.5528 7.96174 18.5528 7.32963L18.5523 6.19027H22.7803L22.7823 29.9266H2.9573Z" fill="#009DC7"/>
<path id="Vector_4" d="M14.3838 21.2223C14.3838 21.3451 14.2841 21.4451 14.1611 21.4451L5.83967 21.4448C5.71693 21.4448 5.61694 21.3451 5.61694 21.2221V20.3323C5.61694 20.2096 5.7167 20.1096 5.83967 20.1096H14.1617C14.2844 20.1096 14.3844 20.2094 14.3844 20.3323L14.3838 21.2223Z" fill="#009DC7"/>
<path id="Vector_5" d="M17.9409 22.165C17.6993 22.165 17.4745 22.0501 17.3207 21.8476L15.5892 19.578L16.5429 18.8501L17.8999 20.6294L20.1177 16.9888L21.1413 17.6128L18.604 21.7816C18.4631 22.0112 18.2376 22.151 17.9799 22.165C17.9659 22.1639 17.9549 22.165 17.9409 22.165L17.9409 22.165Z" fill="#009DC7"/>
<path id="Vector_6" d="M14.3838 27.2224C14.3838 27.3452 14.2841 27.444 14.1611 27.444L5.83967 27.4443C5.71693 27.4443 5.61694 27.3454 5.61694 27.2227V26.332C5.61694 26.2092 5.7167 26.1093 5.83967 26.1093H14.1617C14.2844 26.1093 14.3844 26.209 14.3844 26.332L14.3838 27.2224Z" fill="#009DC7"/>
<path id="Vector_7" d="M17.9409 28.1646C17.6993 28.1646 17.4745 28.0496 17.3207 27.8471L15.5892 25.5776L16.5429 24.8497L17.8999 26.628L20.1177 22.9874L21.1413 23.6114L18.604 27.7814C18.4631 28.0101 18.2376 28.1508 17.9799 28.1648C17.9659 28.1646 17.9549 28.1646 17.9409 28.1646L17.9409 28.1646Z" fill="#009DC7"/>
</g>
</svg>
