<svg width="33" height="30" viewBox="0 0 33 30" fill="none" xmlns="http://www.w3.org/2000/svg">
<g id="Group">
<path id="Vector" d="M17.718 14.0906C19.3537 12.6285 21.5237 11.7475 23.9008 11.7475C25.3372 11.7475 26.6735 12.0869 27.8689 12.6289L29.3892 11.2459C31.3894 9.13664 31.0754 5.38106 28.576 2.69795C26.0915 -0.0175322 22.3587 -0.616532 20.0904 1.24599L11.5037 9.18692C12.7895 9.6812 14.0207 10.3637 15.1148 11.3279C16.4546 12.3858 17.2998 13.5237 17.7181 14.0902L17.718 14.0906Z" fill="#E09F1F"/>
<path id="Vector_2" d="M16.8088 14.9904C16.5159 14.568 15.6425 13.3867 14.3133 12.2568C13.1073 11.2455 11.8294 10.5456 10.5185 10.1368L1.73275 18.258C-0.477166 20.3057 -0.228023 24.2307 2.38968 26.9897C4.93186 29.7449 8.80286 30.3227 11.002 28.2676L15.0538 24.5052C14.6962 23.4837 14.4796 22.378 14.4796 21.23C14.4794 18.8325 15.3427 16.6297 16.8092 14.9902L16.8088 14.9904Z" fill="#E09F1F"/>
<path id="Vector_3" d="M31.8302 18.8101L16.4836 24.8912C18.3541 28.6973 22.8858 30.5067 26.9552 28.9185C30.9853 27.2998 33.0756 22.9023 31.8301 18.8103L31.8302 18.8101Z" fill="#E09F1F"/>
<path id="Vector_4" d="M20.8704 13.4983C16.8266 15.084 14.7139 19.5077 15.9604 23.5912L31.3175 17.5101C29.4352 13.7008 24.9043 11.8988 20.8704 13.4982V13.4983Z" fill="#E09F1F"/>
</g>
</svg>
