<svg width="30" height="31" viewBox="0 0 30 31" fill="none" xmlns="http://www.w3.org/2000/svg">
<g id="Group">
<path id="Vector" d="M27.2248 16.2848C27.2575 16.2883 27.2902 16.2883 27.3226 16.2848C27.4771 16.6632 27.7988 16.9477 28.1929 17.0549C28.5872 17.1619 29.0089 17.0791 29.3333 16.8311C29.6578 16.583 29.8481 16.1978 29.8481 15.7893C29.8481 15.3809 29.6578 14.9957 29.3333 14.7476C29.0088 14.4995 28.5872 14.4168 28.1929 14.5238C27.7988 14.631 27.4771 14.9155 27.3226 15.2939C27.2902 15.2903 27.2575 15.2903 27.2248 15.2939H25.6237C25.5738 14.2733 25.3784 13.2655 25.0438 12.3002L26.5304 11.7103C26.5616 11.6987 26.591 11.6827 26.6181 11.6632C26.9012 11.9595 27.3061 12.1067 27.7134 12.0616C28.1206 12.0164 28.4837 11.7841 28.6951 11.433C28.9063 11.082 28.9418 10.6523 28.7911 10.2714C28.6403 9.89025 28.3205 9.60124 27.9262 9.48982C27.5321 9.37835 27.1081 9.45713 26.7803 9.70286C26.4523 9.94859 26.2579 10.3331 26.2541 10.7429C26.2216 10.7483 26.1899 10.7572 26.1596 10.7699L24.6798 11.3632C24.2292 10.3808 23.6339 9.47169 22.9134 8.6663L24.0595 7.54374C24.0794 7.51811 24.0973 7.49107 24.1133 7.46285C24.4874 7.63075 24.9182 7.61428 25.2782 7.41817C25.6383 7.22183 25.8856 6.86864 25.9472 6.4635C26.0088 6.05811 25.8771 5.64728 25.5917 5.35316C25.306 5.05923 24.8994 4.91555 24.4924 4.96493C24.0853 5.01455 23.7251 5.25134 23.5184 5.60549C23.3117 5.95939 23.2823 6.38969 23.4391 6.76851C23.4121 6.78873 23.3817 6.79884 23.3549 6.82236L22.2121 7.94492C21.4488 7.23429 20.5856 6.63918 19.65 6.17849L20.2906 4.71214C20.3038 4.6818 20.3139 4.65006 20.3209 4.61784C20.7291 4.62725 21.1185 4.44618 21.3744 4.1278C21.63 3.80964 21.7229 3.39014 21.6253 2.99368C21.5279 2.59723 21.2512 2.26872 20.877 2.10505C20.5029 1.94162 20.074 1.96161 19.7166 2.1596C19.3594 2.35736 19.1149 2.71031 19.0549 3.11403C18.9949 3.51801 19.1264 3.92694 19.4109 4.21992C19.393 4.2479 19.3773 4.27729 19.3637 4.30763L18.7231 5.77397C17.6659 5.3747 16.5518 5.14708 15.4228 5.09982V3.48509C15.4264 3.4524 15.4264 3.41972 15.4228 3.38727C15.8009 3.23278 16.0857 2.91109 16.1927 2.51699C16.2999 2.12265 16.2171 1.70102 15.9691 1.37655C15.721 1.05205 15.3358 0.861816 14.9274 0.861816C14.5189 0.861816 14.1337 1.05205 13.8856 1.37655C13.6373 1.70105 13.5548 2.1227 13.6618 2.51699C13.7688 2.9111 14.0535 3.2328 14.4316 3.38727C14.4281 3.41972 14.4281 3.4524 14.4316 3.48509V5.08646V5.08622C13.3027 5.13372 12.1886 5.36134 11.1314 5.76038L10.4843 4.31774C10.4706 4.28741 10.4546 4.25802 10.437 4.23004C10.7239 3.9401 10.8591 3.53283 10.8026 3.1286C10.746 2.72463 10.5042 2.37024 10.1487 2.17014C9.79319 1.97004 9.36452 1.94746 8.98991 2.10877C8.61509 2.27008 8.33713 2.59717 8.23841 2.99295C8.13941 3.3887 8.23088 3.80796 8.48555 4.12659C8.74022 4.44545 9.12912 4.62698 9.5369 4.61781C9.54395 4.65003 9.5543 4.68177 9.56723 4.7121L10.2113 6.17845C9.28388 6.63558 8.42769 7.2251 7.66933 7.92791L6.503 6.80553C6.47596 6.78201 6.44563 6.7719 6.41882 6.75168V6.75145C6.57567 6.37262 6.54627 5.94251 6.33958 5.58843C6.13288 5.23454 5.7724 4.99751 5.36558 4.94787C4.95855 4.89849 4.55171 5.04216 4.26626 5.33633C3.98079 5.6305 3.84911 6.04106 3.91072 6.44643C3.97209 6.85182 4.2197 7.20504 4.57969 7.4011C4.93947 7.59721 5.37051 7.61391 5.74439 7.44578C5.76038 7.474 5.77849 7.50104 5.79848 7.52667L6.94458 8.64924C6.23328 9.44523 5.64467 10.3428 5.19837 11.3125L3.71835 10.7225C3.68731 10.7086 3.65439 10.6995 3.62077 10.6955C3.61983 10.287 3.42842 9.90206 3.10297 9.65471C2.77777 9.40757 2.35592 9.32598 1.96181 9.43414C1.56794 9.54255 1.24697 9.82825 1.09364 10.2071C0.940561 10.5859 0.972544 11.0143 1.18065 11.3661C1.38851 11.7179 1.74853 11.9526 2.1544 12.0008C2.56003 12.0492 2.9652 11.9055 3.24993 11.6126C3.27768 11.6309 3.30708 11.6467 3.33741 11.6596L4.81742 12.2531C4.47552 13.2303 4.27776 14.2526 4.23097 15.2869H2.63646C2.60377 15.2834 2.57109 15.2834 2.53864 15.2869C2.38414 14.9088 2.06246 14.624 1.66836 14.5171C1.27402 14.4098 0.852384 14.4926 0.52792 14.7407C0.203419 14.9888 0.0131836 15.374 0.0131836 15.7824C0.0131836 16.1908 0.203419 16.576 0.52792 16.8241C0.85242 17.0724 1.27407 17.155 1.66836 17.048C2.06247 16.941 2.38417 16.6562 2.53864 16.2781C2.57109 16.2816 2.60377 16.2816 2.63646 16.2781H4.23783H4.23759C4.28838 17.2939 4.48379 18.2973 4.81746 19.2581L3.33089 19.8514C3.29891 19.8625 3.26834 19.8773 3.23989 19.8951C2.9563 19.6012 2.55183 19.4561 2.14598 19.5029C1.74012 19.5495 1.37942 19.7827 1.16988 20.1334C0.960594 20.4842 0.926733 20.9124 1.07817 21.2919C1.2296 21.6712 1.54917 21.9583 1.94255 22.0683C2.33595 22.1784 2.75804 22.0989 3.08443 21.8532C3.41082 21.6077 3.60411 21.2239 3.60716 20.8155C3.64008 20.8117 3.67183 20.8026 3.70169 20.7885L5.19182 20.1985H5.19158C5.64166 21.1811 6.23703 22.0902 6.95802 22.8954L5.81192 24.0179C5.79193 24.0436 5.77406 24.0706 5.75807 24.0988C5.38396 23.9309 4.95317 23.9474 4.59313 24.1438C4.23312 24.3399 3.98574 24.6931 3.92415 25.0984C3.86255 25.5036 3.99423 25.9144 4.27969 26.2085C4.5654 26.5027 4.97196 26.6464 5.37902 26.5968C5.78606 26.5474 6.1463 26.3103 6.35301 25.9564C6.55971 25.6023 6.5891 25.172 6.43226 24.7932C6.46236 24.7786 6.49057 24.7605 6.51644 24.7393L7.65923 23.6168C8.4197 24.3255 9.27938 24.9195 10.2113 25.3799L9.57074 26.8495C9.5571 26.8799 9.54699 26.9116 9.5404 26.9441C9.1329 26.9358 8.74489 27.1181 8.49116 27.4367C8.2372 27.7556 8.14643 28.1744 8.24543 28.5696C8.34443 28.9649 8.6219 29.2915 8.99628 29.4528C9.37039 29.6142 9.79835 29.5918 10.1539 29.3926C10.5092 29.1932 10.7514 28.8398 10.809 28.4363C10.8666 28.033 10.7328 27.6257 10.4471 27.3351C10.4659 27.3095 10.4829 27.2824 10.4977 27.2542L11.1382 25.7845V25.7843C12.1954 26.1836 13.3096 26.4112 14.4385 26.4585V28.0598C14.435 28.0923 14.435 28.1252 14.4385 28.1577C14.0604 28.3119 13.7756 28.6338 13.6686 29.0279C13.5614 29.422 13.6442 29.8437 13.8923 30.1681C14.1403 30.4926 14.5255 30.6831 14.934 30.6831C15.3424 30.6831 15.7276 30.4926 15.9757 30.1681C16.224 29.8436 16.3065 29.422 16.1995 29.0279C16.0926 28.6339 15.8078 28.3119 15.4297 28.1577C15.4332 28.1252 15.4332 28.0923 15.4297 28.0598V26.4721C16.5586 26.4246 17.6728 26.197 18.7299 25.798L19.3771 27.2406C19.3912 27.2705 19.4081 27.2987 19.4276 27.325C19.1372 27.6138 18.9983 28.0215 19.0521 28.4274C19.1059 28.8335 19.3463 29.1909 19.702 29.3941C20.0578 29.597 20.4879 29.6222 20.8648 29.462C21.2418 29.3019 21.5223 28.9748 21.623 28.5778C21.7238 28.1809 21.6335 27.7598 21.3786 27.439C21.1237 27.1185 20.7339 26.9353 20.3245 26.944C20.3179 26.9116 20.3078 26.8798 20.2941 26.8495L19.6501 25.3799C20.5775 24.9227 21.4337 24.3332 22.192 23.6304L23.3584 24.7528C23.3842 24.7739 23.4127 24.792 23.4425 24.8069C23.2857 25.1857 23.3151 25.6158 23.5218 25.9699C23.7285 26.3238 24.0889 26.5608 24.4958 26.6104C24.9028 26.6598 25.3096 26.5161 25.5951 26.222C25.8806 25.9278 26.0122 25.5172 25.9506 25.1119C25.8893 24.7065 25.6417 24.3533 25.2817 24.1572C24.9219 23.9611 24.4908 23.9444 24.117 24.1125C24.101 24.0843 24.0829 24.0573 24.0629 24.0316L22.9168 22.9091C23.6269 22.1143 24.2143 21.2176 24.6597 20.2493L26.143 20.8358C26.174 20.8496 26.207 20.8588 26.2406 20.8628C26.2415 21.2713 26.4329 21.6562 26.7584 21.9036C27.0836 22.1507 27.5054 22.2323 27.8995 22.1241C28.2934 22.0157 28.6144 21.73 28.7677 21.3512C28.9208 20.9724 28.8888 20.5439 28.6807 20.1922C28.4728 19.8404 28.1128 19.6057 27.707 19.5575C27.3013 19.509 26.8962 19.6527 26.6114 19.9457C26.5837 19.9274 26.5543 19.9116 26.5239 19.8987L25.0439 19.3087C25.3854 18.331 25.5829 17.309 25.6304 16.2746L27.2248 16.2848ZM18.3728 8.48081C18.9611 8.48081 19.5252 8.71431 19.9412 9.13028C20.3572 9.54626 20.5909 10.1106 20.5909 10.699C20.5909 11.2871 20.3572 11.8514 19.9412 12.2674C19.5252 12.6834 18.9611 12.9171 18.3728 12.9171C17.7844 12.9171 17.2203 12.6834 16.8043 12.2674C16.3883 11.8514 16.1546 11.2871 16.1546 10.699C16.1537 10.1104 16.3872 9.54559 16.8033 9.12938C17.2196 8.71317 17.7841 8.47991 18.3727 8.48087L18.3728 8.48081ZM15.096 18.1624C14.5079 18.1624 13.9435 17.9286 13.5275 17.5127C13.1115 17.0967 12.8778 16.5323 12.8778 15.944C12.8778 15.3559 13.1115 14.7915 13.5275 14.3755C13.9435 13.9596 14.5078 13.7258 15.096 13.7258C15.6843 13.7258 16.2486 13.9596 16.6646 14.3755C17.0806 14.7915 17.3144 15.3558 17.3144 15.944C17.3144 16.5323 17.0806 17.0966 16.6646 17.5127C16.2487 17.9286 15.6843 18.1624 15.096 18.1624ZM11.8162 8.48081C12.4043 8.48081 12.9686 8.71431 13.3846 9.13028C13.8006 9.54626 14.0343 10.1106 14.0343 10.699C14.0343 11.2871 13.8006 11.8514 13.3846 12.2674C12.9686 12.6834 12.4043 12.9171 11.8162 12.9171C11.2278 12.9171 10.6635 12.6834 10.2475 12.2674C9.8315 11.8514 9.59777 11.2871 9.59777 10.699C9.59777 10.1106 9.8315 9.54631 10.2475 9.13028C10.6635 8.71431 11.2278 8.48081 11.8162 8.48081ZM6.32128 15.9441C6.32128 15.355 6.55549 14.7902 6.97262 14.3743C7.38953 13.9581 7.9548 13.7248 8.54389 13.7262C9.13294 13.7274 9.69728 13.9627 10.1126 14.3806C10.5278 14.7984 10.7599 15.3642 10.7576 15.9532C10.7552 16.5423 10.5187 17.1061 10.0999 17.5207C9.68132 17.935 9.11511 18.166 8.52601 18.1624C7.93979 18.1596 7.37853 17.9247 6.96509 17.509C6.55194 17.093 6.32032 16.5305 6.32128 15.9441ZM11.8162 23.0775C11.2278 23.0775 10.6635 22.844 10.2475 22.428C9.8315 22.012 9.59777 21.4477 9.59777 20.8593C9.59777 20.2712 9.8315 19.7069 10.2475 19.2909C10.6635 18.8749 11.2278 18.6412 11.8162 18.6412C12.4043 18.6412 12.9686 18.8749 13.3846 19.2909C13.8006 19.7069 14.0343 20.2712 14.0343 20.8593C14.0343 21.4477 13.8006 22.012 13.3846 22.428C12.9686 22.844 12.4043 23.0775 11.8162 23.0775ZM18.3729 23.0775H18.3726C17.7843 23.0775 17.2202 22.844 16.8042 22.428C16.3882 22.012 16.1545 21.4477 16.1545 20.8593C16.1545 20.2712 16.3882 19.7069 16.8042 19.2909C17.2202 18.8749 17.7843 18.6412 18.3726 18.6412C18.961 18.6412 19.5251 18.8749 19.9411 19.2909C20.3571 19.7069 20.5908 20.2712 20.5908 20.8593C20.5908 21.4477 20.3571 22.012 19.9411 22.428C19.5251 22.844 18.961 23.0775 18.3726 23.0775H18.3729ZM21.3357 18.1627C20.7476 18.1627 20.1833 17.9289 19.7673 17.513C19.3513 17.097 19.1176 16.5326 19.1176 15.9443C19.1176 15.3562 19.3513 14.7918 19.7673 14.3758C20.1833 13.9599 20.7476 13.7261 21.3357 13.7261C21.9241 13.7261 22.4884 13.9599 22.9044 14.3758C23.3204 14.7918 23.5539 15.3561 23.5539 15.9443C23.5539 16.5326 23.3204 17.0969 22.9044 17.513C22.4884 17.9289 21.9241 18.1627 21.3357 18.1627Z" fill="#9D4C6C"/>
</g>
</svg>
