<svg width="17" height="4" viewBox="0 0 17 4" fill="none" xmlns="http://www.w3.org/2000/svg">
<g id="Vector">
<path d="M2.50002 1.81474C2.50002 2.18293 2.20154 2.48141 1.83335 2.48141C1.46516 2.48141 1.16669 2.18293 1.16669 1.81474C1.16669 1.44655 1.46516 1.14807 1.83335 1.14807C2.20154 1.14807 2.50002 1.44655 2.50002 1.81474Z" stroke="white" stroke-opacity="0.62" stroke-width="2"/>
<path d="M9.16669 1.81474C9.16669 2.18293 8.86821 2.48141 8.50002 2.48141C8.13183 2.48141 7.83335 2.18293 7.83335 1.81474C7.83335 1.44655 8.13183 1.14807 8.50002 1.14807C8.86821 1.14807 9.16669 1.44655 9.16669 1.81474Z" stroke="white" stroke-opacity="0.62" stroke-width="2"/>
<path d="M15.8334 1.81474C15.8334 2.18293 15.5349 2.48141 15.1667 2.48141C14.7985 2.48141 14.5 2.18293 14.5 1.81474C14.5 1.44655 14.7985 1.14807 15.1667 1.14807C15.5349 1.14807 15.8334 1.44655 15.8334 1.81474Z" stroke="white" stroke-opacity="0.62" stroke-width="2"/>
</g>
</svg>
